<svg width="84" height="84" viewBox="0 0 84 84" fill="none" xmlns="http://www.w3.org/2000/svg">
<circle cx="42" cy="42" r="42" fill="white"/>
<path d="M73.5691 59.0106C72.6081 59.2098 71.8349 59.1798 71.1706 58.9263C70.4237 58.6413 69.7773 58.0597 69.1481 57.1148L69.1482 57.1147L69.1426 57.107L59.9546 44.395L59.9547 44.3949L59.9516 44.3908L58.6236 42.6308L58.422 42.3636L58.223 42.6328L47.493 57.1468L47.4929 57.1467L47.4894 57.1517C46.8879 58.0083 46.2924 58.5921 45.5925 58.8967C44.9759 59.165 44.2503 59.2283 43.3203 59.0296L56.8345 40.8888L56.9474 40.7371L56.8323 40.5872L44.2906 24.2532C45.1966 24.1068 45.9547 24.0988 46.6239 24.2996C47.3803 24.5266 48.0547 25.0306 48.7058 25.9807L48.7056 25.9808L48.7111 25.9882L58.2411 38.8582L58.4407 39.1278L58.642 38.8594L68.242 26.0594L68.2421 26.0595L68.2464 26.0534C68.8475 25.2001 69.451 24.6408 70.148 24.3623C70.7626 24.1167 71.4788 24.0782 72.3783 24.29L67.6437 30.5671L67.6424 30.5689L60.9268 39.3132C60.9263 39.3139 60.9257 39.3145 60.9252 39.3152C60.5072 39.8382 60.2958 40.3173 60.3193 40.8188C60.3424 41.3129 60.592 41.7757 60.9685 42.2701C60.9687 42.2703 60.9689 42.2706 60.9691 42.2709L73.5691 59.0106ZM12.96 41.8274H12.7193L12.7102 42.068C12.4939 47.7987 14.4482 52.4271 17.8089 55.1788C21.1731 57.9334 25.9079 58.7754 31.1795 57.0064L31.1796 57.0064C34.9265 55.7478 37.1228 52.8124 38.2153 49.1819C38.4808 48.3107 38.8131 47.8783 39.2199 47.6929C39.5993 47.52 40.1056 47.5318 40.8204 47.7261C39.9481 52.0517 38.035 55.6264 34.0862 57.8782L34.086 57.8783C28.053 61.3252 19.4369 60.202 14.9217 55.4276L14.9194 55.4253C12.2325 52.658 11.1125 49.1432 10.6079 45.3452C10.5521 44.905 10.4568 44.4705 10.365 44.0526C10.3249 43.8696 10.2854 43.6898 10.2503 43.514C10.2607 42.4949 10.2659 41.4757 10.266 40.4566L11.3832 34.9621C14.4041 24.1829 26.742 19.7364 35.2339 26.3743C40.1334 30.2291 41.4141 35.6636 41.207 41.8274H12.96ZM38.756 39.9214H39.0112L39.0059 39.6663C38.8359 31.367 33.6526 25.3987 26.506 25.3474C22.6105 25.3169 19.2536 26.7489 16.8298 29.2707C14.4074 31.791 12.9302 35.3856 12.7622 39.6616L13.012 39.6714V39.9214H38.756Z" fill="black" stroke="black" stroke-width="0.5"/>
</svg>
