<svg width="84" height="70" viewBox="0 0 84 70" fill="none" xmlns="http://www.w3.org/2000/svg">
<rect width="84" height="70" rx="15" fill="white"/>
<path d="M7 49.7868H9.3061V40.7518L12.8762 48.631C13.2973 49.5809 13.8742 49.9221 15.0049 49.9221C16.1355 49.9221 16.6899 49.5846 17.1117 48.631L20.6821 40.7518V49.7902H22.9886V40.7667C22.9886 39.8865 22.6331 39.4607 21.9017 39.2409C20.15 38.6981 18.9745 39.1676 18.4427 40.3414L14.9393 48.1174L11.5459 40.338C11.0359 39.1642 9.83862 38.6947 8.08691 39.2375C7.35479 39.4577 7 39.8834 7 40.7634V49.7868ZM24.9054 42.4303H27.2108V47.4102C27.1893 47.6809 27.2983 48.3159 28.5616 48.3352C29.2062 48.3454 33.5361 48.3352 33.5764 48.3352V42.4055H35.887C35.8972 42.4055 35.8846 50.4907 35.8849 50.5253C35.8976 52.5193 33.3918 52.9524 32.2373 52.986H24.9556V51.4459L32.2502 51.4456C33.7343 51.2896 33.5593 50.5578 33.5593 50.3112V49.7108H28.658C26.3775 49.6904 24.9255 48.7023 24.9074 47.5659C24.9057 47.4641 24.9566 42.4792 24.9061 42.43L24.9054 42.4303Z" fill="#00618A"/>
<path d="M37.6646 49.7868H44.2948C45.0707 49.7868 45.825 49.6257 46.4242 49.3465C47.4223 48.8919 47.91 48.2755 47.91 47.4685V45.7961C47.91 45.1357 47.3556 44.5196 46.2694 44.1088C45.6928 43.8883 44.9832 43.7713 44.2958 43.7713H41.5017C40.5706 43.7713 40.1269 43.4924 40.0162 42.8764C39.994 42.8031 39.994 42.7407 39.994 42.6708V41.6294C39.994 41.5707 39.994 41.5117 40.0162 41.4384C40.1269 40.9689 40.371 40.8366 41.1913 40.76C41.2579 40.76 41.3465 40.745 41.4135 40.745H47.9992V39.2195H41.5242C40.5928 39.2195 40.1051 39.2782 39.6614 39.4102C38.2853 39.8359 37.6865 40.5144 37.6865 41.6881V43.0233C37.6865 44.0505 38.8623 44.9308 40.8351 45.136C41.0573 45.1506 41.2788 45.1652 41.5003 45.1652H43.8953C43.9841 45.1652 44.073 45.1652 44.1393 45.1801C44.8707 45.2388 45.1818 45.3707 45.4033 45.6347C45.54 45.7704 45.581 45.8993 45.581 46.0417V47.3769C45.581 47.5384 45.4703 47.744 45.2484 47.9197C45.0488 48.0961 44.7163 48.2131 44.2726 48.2426C44.1837 48.2426 44.1174 48.2572 44.0289 48.2572H37.6646V49.7831V49.7868ZM62.2959 47.1313C62.2959 48.7013 63.471 49.5816 65.8437 49.7576C66.0651 49.7746 66.2869 49.7844 66.5089 49.7868H72.5183V48.261H66.4644C65.112 48.261 64.6016 47.9234 64.6016 47.1164V39.2226H62.2955V47.1307L62.2959 47.1313ZM49.3811 47.2107V41.7712C49.3811 40.3892 50.3586 39.551 52.2918 39.2864C52.498 39.2571 52.706 39.2424 52.9142 39.2423H57.2916C57.5073 39.2424 57.7227 39.2571 57.9363 39.2864C59.8695 39.551 60.847 40.3889 60.847 41.7712V47.2107C60.847 48.3319 60.4317 48.932 59.4747 49.3231L61.7463 51.3584H59.0686L57.2308 49.7118L55.3807 49.8282H52.9142C52.4921 49.8282 52.0478 49.7692 51.5587 49.6369C50.089 49.24 49.3814 48.4753 49.3814 47.2107H49.3811ZM51.8704 47.075C51.8704 47.1486 51.8926 47.2219 51.9148 47.3104C52.0516 47.9428 52.648 48.2956 53.5555 48.2956H55.6507L53.7264 46.5713H56.404L58.0788 48.0751C58.3881 47.9116 58.5915 47.6612 58.6599 47.34C58.6821 47.2667 58.6821 47.1931 58.6821 47.1195V41.9038C58.6821 41.8452 58.6821 41.7682 58.6599 41.6979C58.5231 41.1101 57.9264 40.7718 57.0377 40.7718H53.5596C52.5342 40.7718 51.8711 41.2128 51.8711 41.9038V47.0791L51.8704 47.075Z" fill="#E48E00"/>
<path d="M74.5473 36.6913C73.1298 36.6533 72.0467 36.7839 71.1211 37.1713C70.8579 37.2815 70.4385 37.2842 70.3955 37.6116C70.54 37.7619 70.5629 37.9864 70.6774 38.1713C70.8986 38.5265 71.2722 39.0024 71.6047 39.2514C71.9684 39.5238 72.343 39.8156 72.7337 40.052C73.4275 40.472 74.202 40.7118 74.8699 41.1321C75.2637 41.3797 75.6547 41.6918 76.0389 41.972C76.2286 42.1104 76.3567 42.3255 76.6028 42.412V42.372C76.4729 42.2081 76.4398 41.9829 76.3208 41.8122L75.7969 41.2922C75.2842 40.6138 74.6341 40.0245 73.9426 39.5316C73.3913 39.1388 72.1571 38.6083 71.927 37.9712L71.8867 37.9312C72.2777 37.8871 72.7354 37.747 73.0967 37.6513C73.7027 37.4902 74.2444 37.5315 74.8706 37.3714L75.7172 37.1313V36.9711C75.4007 36.6489 75.1751 36.2225 74.8303 35.9311C73.9279 35.1678 72.9425 34.4062 71.9284 33.7702C71.3658 33.4174 70.6706 33.1888 70.0742 32.8899C69.8735 32.7895 69.5211 32.7372 69.3889 32.5697C69.0758 32.1735 68.9052 31.6707 68.6636 31.2128C68.1577 30.246 67.6607 29.1896 67.2123 28.1723C66.9064 27.4786 66.7064 26.7943 66.3257 26.1718C64.4954 23.1853 62.5249 21.3826 59.4733 19.6112C58.8239 19.2347 58.0422 19.0854 57.2158 18.891L55.8855 18.811C55.6148 18.699 55.3332 18.37 55.0789 18.2105C54.0678 17.5762 51.4746 16.1979 50.7257 18.007C50.253 19.1512 51.4322 20.2676 51.8543 20.8477C52.1503 21.2548 52.5297 21.7103 52.741 22.168C52.8801 22.4685 52.9043 22.7701 53.0233 23.0883C53.3162 23.8685 53.5712 24.7244 53.9502 25.4486C54.1417 25.815 54.3529 26.201 54.5952 26.5287C54.7439 26.7299 54.9985 26.8184 55.0385 27.1291C54.7897 27.4752 54.7753 28.0111 54.6352 28.4494C54.0053 30.421 54.2428 32.8712 55.1592 34.3306C55.4405 34.7784 56.1025 35.7391 57.0134 35.3707C57.8098 35.0484 57.6287 34.0511 57.8601 33.1704C57.9113 32.9703 57.8799 32.8244 57.9811 32.6904V32.7305L58.7067 34.1705C59.2433 35.0287 60.1969 35.926 61.0042 36.5315C61.423 36.8453 61.7562 37.3881 62.2942 37.5716V37.5315H62.2539C62.1489 37.3687 61.9849 37.3019 61.8505 37.172C61.5351 36.865 61.184 36.4833 60.9232 36.1319C60.1884 35.142 59.5396 34.0592 58.9483 32.9313C58.666 32.3929 58.4203 31.7989 58.1827 31.2511C58.0911 31.0398 58.0921 30.7205 57.9007 30.611C57.6399 31.0126 57.2558 31.3369 57.0541 31.8112C56.7314 32.569 56.6897 33.493 56.5705 34.4517C56.4997 34.4768 56.5312 34.4595 56.4898 34.4917C55.9286 34.3574 55.731 33.7838 55.5225 33.2915C54.9948 32.0466 54.897 30.0431 55.3612 28.6109C55.4808 28.2405 56.0243 27.0728 55.8045 26.7306C55.6996 26.389 55.3533 26.1878 55.1595 25.93C54.9203 25.6077 54.6803 25.1823 54.5146 24.8099C54.0825 23.8397 53.8809 22.7507 53.4263 21.7694C53.2089 21.3005 52.8418 20.8263 52.5396 20.4125C52.2054 19.9511 51.8311 19.6105 51.5724 19.0555C51.4801 18.8571 51.355 18.5399 51.4917 18.3354C51.5048 18.2766 51.5345 18.2228 51.5774 18.1802C51.6202 18.1376 51.6745 18.1081 51.7337 18.0952C51.9675 17.9164 52.6189 18.1546 52.8623 18.2553C53.5083 18.5219 54.0483 18.7757 54.5959 19.1356C54.8591 19.3052 55.1247 19.6431 55.4422 19.736H55.8045C56.3719 19.8656 57.0076 19.7767 57.5374 19.9362C58.4746 20.2188 59.3141 20.6587 60.077 21.1364C62.4005 22.5923 64.2999 24.665 65.5994 27.1407C65.8085 27.5386 65.8988 27.9189 66.083 28.3409C66.4545 29.1889 66.9225 30.0686 67.2923 30.901C67.6614 31.7321 68.0203 32.57 68.5419 33.2614C68.816 33.6243 69.8749 33.8197 70.3558 34.0212C70.6932 34.1627 71.2455 34.3102 71.5651 34.5012C72.1752 34.8666 72.7665 35.3018 73.339 35.7021C73.6251 35.9022 74.5045 36.3409 74.5483 36.7021L74.5473 36.6913Z" fill="#00618A"/>
<path fill-rule="evenodd" clip-rule="evenodd" d="M56.5298 21.4491C56.2341 21.4437 56.0253 21.481 55.8041 21.5292V21.5692H55.8445C55.9853 21.8569 56.2341 22.0418 56.4084 22.2894L56.8118 23.1293L56.8521 23.0893C57.1016 22.9146 57.2161 22.6354 57.2144 22.209C57.1142 22.1045 57.0995 21.9736 57.0127 21.8487C56.8975 21.6825 56.6709 21.5882 56.5291 21.4485L56.5298 21.4491Z" fill="#00618A"/>
<path fill-rule="evenodd" clip-rule="evenodd" d="M73.6008 48.2175C73.6008 49.225 74.403 49.9042 75.3002 49.9042C76.1975 49.9042 76.9996 49.225 76.9996 48.2175C76.9996 47.21 76.1975 46.5309 75.3002 46.5309C74.403 46.5309 73.6008 47.21 73.6008 48.2175ZM76.6189 48.2175C76.6189 48.9821 76.03 49.5534 75.2996 49.5534C74.5613 49.5534 73.9802 48.9821 73.9802 48.2175C73.9802 47.4529 74.5606 46.8816 75.2996 46.8816C76.0293 46.8816 76.6189 47.4529 76.6189 48.2175ZM75.7576 49.1802H76.138L75.5809 48.3349C75.8799 48.3033 76.1062 48.1592 76.1062 47.8084C76.1062 47.4169 75.8567 47.2555 75.3768 47.2555H74.6197V49.1806H74.9461V48.3485H75.2497L75.7572 49.1806L75.7576 49.1802ZM74.9461 48.0778V47.5248H75.3221C75.5169 47.5248 75.7528 47.5608 75.7528 47.786C75.7528 48.0557 75.5398 48.0784 75.2948 48.0784H74.9461V48.0778Z" fill="#E48E00"/>
</svg>
