<svg width="84" height="84" viewBox="0 0 84 84" fill="none" xmlns="http://www.w3.org/2000/svg">
<circle cx="42" cy="42" r="42" fill="white"/>
<path d="M28 28L29.8916 26.6338C29.299 25.8134 28.2451 25.4685 27.2821 25.7798C26.3191 26.0912 25.6667 26.9879 25.6667 28H28ZM42 72.3333C25.2474 72.3333 11.6667 58.7529 11.6667 42H7C7 61.3298 22.67 77 42 77V72.3333ZM72.3333 42C72.3333 58.7529 58.7529 72.3333 42 72.3333V77C61.3298 77 77 61.3298 77 42H72.3333ZM42 11.6667C58.7529 11.6667 72.3333 25.2474 72.3333 42H77C77 22.67 61.3298 7 42 7V11.6667ZM42 7C22.67 7 7 22.67 7 42H11.6667C11.6667 25.2474 25.2474 11.6667 42 11.6667V7ZM30.3333 63V28H25.6667V63H30.3333ZM26.1084 29.3662L56.4419 71.3659L60.2247 68.6341L29.8916 26.6338L26.1084 29.3662ZM53.6667 25.6667V53.6667H58.3333V25.6667H53.6667Z" fill="black"/>
</svg>
